<svg xmlns="http://www.w3.org/2000/svg" style="display:none">
  <symbol id="icon-alert-triangle" viewBox="0 0 24 24" role="img">
    <title>alert-triangle</title><desc>alert-triangle</desc>
    <path d="M12 9v2m0 4h.01m-6.938 4h13.856c1.54 0 2.502-1.667 1.732-3L13.732 4c-.77-1.333-2.694-1.333-3.464 0L3.34 16c-.77 1.333.192 3 1.732 3z" stroke="currentColor" stroke-width="1.5" stroke-linecap="round" stroke-linejoin="round" fill="none" />
  </symbol>
  <symbol id="icon-branch" viewBox="0 0 24 24" role="img">
    <title>branch</title><desc>branch</desc>
    <path d="M18 9a9 9 0 0 1-9 9" stroke="currentColor" stroke-width="1.5" stroke-linecap="round" stroke-linejoin="round" fill="none" />
  </symbol>
  <symbol id="icon-build" viewBox="0 0 24 24" role="img">
    <title>build</title><desc>build</desc>
    <path d="M11 4a2 2 0 114 0v1a1 1 0 001 1h3a1 1 0 011 1v3a1 1 0 01-1 1h-1a2 2 0 100 4h1a1 1 0 011 1v3a1 1 0 01-1 1h-3a1 1 0 01-1-1v-1a2 2 0 10-4 0v1a1 1 0 01-1 1H7a1 1 0 01-1-1v-3a1 1 0 00-1-1H4a2 2 0 110-4h1a1 1 0 001-1V7a1 1 0 011-1h3a1 1 0 001-1V4z" stroke="currentColor" stroke-width="1.5" stroke-linecap="round" stroke-linejoin="round" fill="none" />
  </symbol>
  <symbol id="icon-chart-bar" viewBox="0 0 24 24" role="img">
    <title>chart-bar</title><desc>chart-bar</desc>
    <path d="M9 19v-6a2 2 0 00-2-2H5a2 2 0 00-2 2v6a2 2 0 002 2h2a2 2 0 002-2zm0 0V9a2 2 0 012-2h2a2 2 0 012 2v10m-6 0a2 2 0 002 2h2a2 2 0 002-2m0 0V5a2 2 0 012-2h2a2 2 0 012 2v14a2 2 0 01-2 2h-2a2 2 0 01-2-2z" stroke="currentColor" stroke-width="1.5" stroke-linecap="round" stroke-linejoin="round" fill="none" />
  </symbol>
  <symbol id="icon-clock" viewBox="0 0 24 24" role="img">
    <title>clock</title><desc>clock</desc>
    <path d="M12 8v4l3 3m6-3a9 9 0 11-18 0 9 9 0 0118 0z" stroke="currentColor" stroke-width="1.5" stroke-linecap="round" stroke-linejoin="round" fill="none" />
  </symbol>
  <symbol id="icon-database" viewBox="0 0 24 24" role="img">
    <title>database</title><desc>database</desc>
    <path d="M4 7v10c0 2.21 3.582 4 8 4s8-1.79 8-4V7M4 7c0 2.21 3.582 4 8 4s8-1.79 8-4M4 7c0-2.21 3.582-4 8-4s8 1.79 8 4m0 5c0 2.21-3.582 4-8 4s-8-1.79-8-4" stroke="currentColor" stroke-width="1.5" stroke-linecap="round" stroke-linejoin="round" fill="none" />
  </symbol>
  <symbol id="icon-deploy" viewBox="0 0 24 24" role="img">
    <title>deploy</title><desc>deploy</desc>
    <path d="M5 12h14m-4 0l4-4m-4 4l4 4" stroke="currentColor" stroke-width="1.5" stroke-linecap="round" stroke-linejoin="round" fill="none" />
  </symbol>
  <symbol id="icon-file" viewBox="0 0 24 24" role="img">
    <title>file</title><desc>file</desc>
    <path d="M7 21h10a2 2 0 002-2V9.414a1 1 0 00-.293-.707l-5.414-5.414A1 1 0 0012.586 3H7a2 2 0 00-2 2v14a2 2 0 002 2z" stroke="currentColor" stroke-width="1.5" stroke-linecap="round" stroke-linejoin="round" fill="none" />
  </symbol>
  <symbol id="icon-folder" viewBox="0 0 24 24" role="img">
    <title>folder</title><desc>folder</desc>
    <path d="M3 7v10a2 2 0 002 2h14a2 2 0 002-2V9a2 2 0 00-2-2h-6l-2-2H5a2 2 0 00-2 2z" stroke="currentColor" stroke-width="1.5" stroke-linecap="round" stroke-linejoin="round" fill="none" />
  </symbol>
  <symbol id="icon-home" viewBox="0 0 24 24" role="img">
    <title>home</title><desc>home</desc>
    <path d="M3 9.5L12 3l9 6.5V20a1 1 0 0 1-1 1H4a1 1 0 0 1-1-1V9.5z" stroke="currentColor" stroke-width="1.5" stroke-linecap="round" stroke-linejoin="round" fill="none" />
  </symbol>
  <symbol id="icon-key" viewBox="0 0 24 24" role="img">
    <title>key</title><desc>key</desc>
    <path d="M15 7a2 2 0 012 2m4 0a6 6 0 01-7.743 5.743L11 17H9v2H7v2H4a1 1 0 01-1-1v-2.586a1 1 0 01.293-.707l5.964-5.964A6 6 0 1121 9z" stroke="currentColor" stroke-width="1.5" stroke-linecap="round" stroke-linejoin="round" fill="none" />
  </symbol>
  <symbol id="icon-package" viewBox="0 0 24 24" role="img">
    <title>package</title><desc>package</desc>
    <path d="M21 16V8a2 2 0 0 0-1-1.73l-7-4a2 2 0 0 0-2 0l-7 4A2 2 0 0 0 3 8v8a2 2 0 0 0 1 1.73l7 4a2 2 0 0 0 2 0l7-4A2 2 0 0 0 21 16z" stroke="currentColor" stroke-width="1.5" stroke-linecap="round" stroke-linejoin="round" fill="none" />
  </symbol>
  <symbol id="icon-plugin" viewBox="0 0 24 24" role="img">
    <title>plugin</title><desc>plugin</desc>
    <path d="M16 21V5a2 2 0 0 0-2-2h-4a2 2 0 0 0-2 2v16" stroke="currentColor" stroke-width="1.5" stroke-linecap="round" stroke-linejoin="round" fill="none" />
  </symbol>
  <symbol id="icon-settings" viewBox="0 0 24 24" role="img">
    <title>settings</title><desc>settings</desc>
    <path d="M19.4 15a1.65 1.65 0 0 0 .33 1.82l.06.06a2 2 0 0 1 0 2.83 2 2 0 0 1-2.83 0l-.06-.06a1.65 1.65 0 0 0-1.82-.33 1.65 1.65 0 0 0-1 1.51V21a2 2 0 0 1-4 0v-.09A1.65 1.65 0 0 0 9 19.4a1.65 1.65 0 0 0-1.82.33l-.06.06a2 2 0 0 1-2.83 0 2 2 0 0 1 0-2.83l.06-.06A1.65 1.65 0 0 0 4.68 15a1.65 1.65 0 0 0-1.51-1H3a2 2 0 0 1 0-4h.09A1.65 1.65 0 0 0 4.6 9a1.65 1.65 0 0 0-.33-1.82l-.06-.06a2 2 0 0 1 0-2.83 2 2 0 0 1 2.83 0l.06.06A1.65 1.65 0 0 0 9 4.68a1.65 1.65 0 0 0 1-1.51V3a2 2 0 0 1 4 0v.09a1.65 1.65 0 0 0 1 1.51 1.65 1.65 0 0 0 1.82-.33l.06-.06a2 2 0 0 1 2.83 0 2 2 0 0 1 0 2.83l-.06.06A1.65 1.65 0 0 0 19.4 9a1.65 1.65 0 0 0 1.51 1H21a2 2 0 0 1 0 4h-.09a1.65 1.65 0 0 0-1.51 1z" stroke="currentColor" stroke-width="1.5" stroke-linecap="round" stroke-linejoin="round" fill="none" />
  </symbol>
  <symbol id="icon-shield" viewBox="0 0 24 24" role="img">
    <title>shield</title><desc>shield</desc>
    <path d="M9 12l2 2 4-4m5.618-4.016A11.955 11.955 0 0112 2.944a11.955 11.955 0 01-8.618 3.04A12.02 12.02 0 003 9c0 5.591 3.824 10.29 9 11.622 5.176-1.332 9-6.03 9-11.622 0-1.042-.133-2.052-.382-3.016z" stroke="currentColor" stroke-width="1.5" stroke-linecap="round" stroke-linejoin="round" fill="none" />
  </symbol>
  <symbol id="icon-user" viewBox="0 0 24 24" role="img">
    <title>user</title><desc>user</desc>
    <path d="M20 21v-2a4 4 0 0 0-4-4H8a4 4 0 0 0-4 4v2" stroke="currentColor" stroke-width="1.5" stroke-linecap="round" stroke-linejoin="round" fill="none" />
  </symbol>
  <symbol id="icon-alert-triangle-outline" viewBox="0 0 24 24" role="img">
    <title>alert-triangle-outline</title><desc>alert-triangle-outline</desc>
    <path d="M12 9v2m0 4h.01m-6.938 4h13.856c1.54 0 2.502-1.667 1.732-3L13.732 4c-.77-1.333-2.694-1.333-3.464 0L3.34 16c-.77 1.333.192 3 1.732 3z" stroke="currentColor" stroke-width="1.5" stroke-linecap="round" stroke-linejoin="round" fill="none" />
  </symbol>
  <symbol id="icon-branch" viewBox="0 0 24 24" role="img">
    <title>branch</title><desc>branch</desc>
    <path d="M18 9a9 9 0 0 1-9 9" stroke="currentColor" stroke-width="2" stroke-linecap="round" stroke-linejoin="round" fill="none" />
  </symbol>
  <symbol id="icon-build-outline" viewBox="0 0 24 24" role="img">
    <title>build-outline</title><desc>build-outline</desc>
    <path d="M11 4a2 2 0 114 0v1a1 1 0 001 1h3a1 1 0 011 1v3a1 1 0 01-1 1h-1a2 2 0 100 4h1a1 1 0 011 1v3a1 1 0 01-1 1h-3a1 1 0 01-1-1v-1a2 2 0 10-4 0v1a1 1 0 01-1 1H7a1 1 0 01-1-1v-3a1 1 0 00-1-1H4a2 2 0 110-4h1a1 1 0 001-1V7a1 1 0 011-1h3a1 1 0 001-1V4z" stroke="currentColor" stroke-width="1.5" stroke-linecap="round" stroke-linejoin="round" fill="none" />
  </symbol>
  <symbol id="icon-chart-bar-outline" viewBox="0 0 24 24" role="img">
    <title>chart-bar-outline</title><desc>chart-bar-outline</desc>
    <path d="M9 19v-6a2 2 0 00-2-2H5a2 2 0 00-2 2v6a2 2 0 002 2h2a2 2 0 002-2zm0 0V9a2 2 0 012-2h2a2 2 0 012 2v10m-6 0a2 2 0 002 2h2a2 2 0 002-2m0 0V5a2 2 0 012-2h2a2 2 0 012 2v14a2 2 0 01-2 2h-2a2 2 0 01-2-2z" stroke="currentColor" stroke-width="1.5" stroke-linecap="round" stroke-linejoin="round" fill="none" />
  </symbol>
  <symbol id="icon-clock-outline" viewBox="0 0 24 24" role="img">
    <title>clock-outline</title><desc>clock-outline</desc>
    <path d="M12 8v4l3 3m6-3a9 9 0 11-18 0 9 9 0 0118 0z" stroke="currentColor" stroke-width="1.5" stroke-linecap="round" stroke-linejoin="round" fill="none" />
  </symbol>
  <symbol id="icon-database-outline" viewBox="0 0 24 24" role="img">
    <title>database-outline</title><desc>database-outline</desc>
    <path d="M4 7v10c0 2.21 3.582 4 8 4s8-1.79 8-4V7M4 7c0 2.21 3.582 4 8 4s8-1.79 8-4M4 7c0-2.21 3.582-4 8-4s8 1.79 8 4m0 5c0 2.21-3.582 4-8 4s-8-1.79-8-4" stroke="currentColor" stroke-width="1.5" stroke-linecap="round" stroke-linejoin="round" fill="none" />
  </symbol>
  <symbol id="icon-deploy-outline" viewBox="0 0 24 24" role="img">
    <title>deploy-outline</title><desc>deploy-outline</desc>
    <path d="M5 12h14m-4 0l4-4m-4 4l4 4" stroke="currentColor" stroke-width="1.5" stroke-linecap="round" stroke-linejoin="round" fill="none" />
  </symbol>
  <symbol id="icon-file-outline" viewBox="0 0 24 24" role="img">
    <title>file-outline</title><desc>file-outline</desc>
    <path d="M7 21h10a2 2 0 002-2V9.414a1 1 0 00-.293-.707l-5.414-5.414A1 1 0 0012.586 3H7a2 2 0 00-2 2v14a2 2 0 002 2z" stroke="currentColor" stroke-width="1.5" stroke-linecap="round" stroke-linejoin="round" fill="none" />
  </symbol>
  <symbol id="icon-folder-outline" viewBox="0 0 24 24" role="img">
    <title>folder-outline</title><desc>folder-outline</desc>
    <path d="M3 7v10a2 2 0 002 2h14a2 2 0 002-2V9a2 2 0 00-2-2h-6l-2-2H5a2 2 0 00-2 2z" stroke="currentColor" stroke-width="1.5" stroke-linecap="round" stroke-linejoin="round" fill="none" />
  </symbol>
  <symbol id="icon-home" viewBox="0 0 24 24" role="img">
    <title>home</title><desc>home</desc>
    <path d="M10 20v-6h4v6h5v-8h3L12 3 2 12h3v8z" stroke="currentColor" stroke-width="1.5" stroke-linecap="round" stroke-linejoin="round" fill="none" />
  </symbol>
  <symbol id="icon-key-outline" viewBox="0 0 24 24" role="img">
    <title>key-outline</title><desc>key-outline</desc>
    <path d="M15 7a2 2 0 012 2m4 0a6 6 0 01-7.743 5.743L11 17H9v2H7v2H4a1 1 0 01-1-1v-2.586a1 1 0 01.293-.707l5.964-5.964A6 6 0 1121 9z" stroke="currentColor" stroke-width="1.5" stroke-linecap="round" stroke-linejoin="round" fill="none" />
  </symbol>
  <symbol id="icon-package" viewBox="0 0 24 24" role="img">
    <title>package</title><desc>package</desc>
    <path d="M12 2L2 7l10 5 10-5-10-5z" stroke="currentColor" stroke-width="1.5" stroke-linecap="round" stroke-linejoin="round" fill="none" />
  </symbol>
  <symbol id="icon-plugin" viewBox="0 0 24 24" role="img">
    <title>plugin</title><desc>plugin</desc>
    <path d="M20 7H4a2 2 0 0 0-2 2v6a2 2 0 0 0 2 2h16a2 2 0 0 0 2-2V9a2 2 0 0 0-2-2z" stroke="currentColor" stroke-width="1.5" stroke-linecap="round" stroke-linejoin="round" fill="none" />
  </symbol>
  <symbol id="icon-settings" viewBox="0 0 24 24" role="img">
    <title>settings</title><desc>settings</desc>
    <path d="M19.4 15a1.65 1.65 0 0 0 .33 1.82l.06.06a2 2 0 0 1 0 2.83 2 2 0 0 1-2.83 0l-.06-.06a1.65 1.65 0 0 0-1.82-.33 1.65 1.65 0 0 0-1 1.51V21a2 2 0 0 1-4 0v-.09A1.65 1.65 0 0 0 9 19.4a1.65 1.65 0 0 0-1.82.33l-.06.06a2 2 0 0 1-2.83 0 2 2 0 0 1 0-2.83l.06-.06A1.65 1.65 0 0 0 4.68 15a1.65 1.65 0 0 0-1.51-1H3a2 2 0 0 1 0-4h.09A1.65 1.65 0 0 0 4.6 9a1.65 1.65 0 0 0-.33-1.82l-.06-.06a2 2 0 0 1 0-2.83 2 2 0 0 1 2.83 0l.06.06A1.65 1.65 0 0 0 9 4.68a1.65 1.65 0 0 0 1-1.51V3a2 2 0 0 1 4 0v.09a1.65 1.65 0 0 0 1 1.51 1.65 1.65 0 0 0 1.82-.33l.06-.06a2 2 0 0 1 2.83 0 2 2 0 0 1 0 2.83l-.06.06A1.65 1.65 0 0 0 19.4 9a1.65 1.65 0 0 0 1.51 1H21a2 2 0 0 1 0 4h-.09a1.65 1.65 0 0 0-1.51 1z" stroke="currentColor" stroke-width="1.5" stroke-linecap="round" stroke-linejoin="round" fill="none" />
  </symbol>
  <symbol id="icon-shield-outline" viewBox="0 0 24 24" role="img">
    <title>shield-outline</title><desc>shield-outline</desc>
    <path d="M9 12l2 2 4-4m5.618-4.016A11.955 11.955 0 0112 2.944a11.955 11.955 0 01-8.618 3.04A12.02 12.02 0 003 9c0 5.591 3.824 10.29 9 11.622 5.176-1.332 9-6.03 9-11.622 0-1.042-.133-2.052-.382-3.016z" stroke="currentColor" stroke-width="1.5" stroke-linecap="round" stroke-linejoin="round" fill="none" />
  </symbol>
  <symbol id="icon-user" viewBox="0 0 24 24" role="img">
    <title>user</title><desc>user</desc>
    <path d="M20 21v-2a4 4 0 0 0-4-4H8a4 4 0 0 0-4 4v2" stroke="currentColor" stroke-width="1.5" stroke-linecap="round" stroke-linejoin="round" fill="none" />
  </symbol>
</svg>